<?xml version="1.0" encoding="utf-8"?>
<!-- Generator: Adobe Illustrator 24.1.2, SVG Export Plug-In . SVG Version: 6.00 Build 0)  -->
<svg version="1.1" id="Layer_1" xmlns="http://www.w3.org/2000/svg" xmlns:xlink="http://www.w3.org/1999/xlink" x="0px" y="0px"
	 viewBox="0 0 121.7 62.6" style="enable-background:new 0 0 121.7 62.6;" xml:space="preserve">
<style type="text/css">
	.st0{fill:#FFA551;}
</style>
<path class="st0" d="M88.3,2.9C86.8,1.7,85.1,1,83,1c-2.3,0-4.1,0.8-5.5,1.9c-1.3,1.1-2.1,3-2.1,5.1c0,6.6,7.7,12.4,7.7,12.4
	c0.4,0,7.5-5.8,7.5-12.8C90.5,5.9,89.8,4.2,88.3,2.9z M82.8,11.5c-1.9,0-3.2-1.5-3.2-3.2s1.5-3.2,3.2-3.2c1.7,0,3.2,1.5,3.2,3.2
	S84.7,11.5,82.8,11.5z"/>
<path class="st0" d="M2.6,19.2c-0.8-0.8-1.1-1.7-1.1-2.8s0.2-2.1,1.1-3c0.8-0.8,1.9-1.1,3-1.1s2.3,0.4,3,1.1s1.1,1.7,1.1,2.8
	s-0.4,2.3-1.1,3c-0.8,0.8-1.7,1.1-3,1.1C4.3,20.4,3.3,20,2.6,19.2z M8.8,24.7V52H2.2V24.7H8.8z"/>
<path class="st0" d="M29,52c-1.1,0.4-2.3,0.4-3.4,0.4c-3,0-5.3-0.8-6.8-2.4c-1.7-1.7-2.4-4-2.4-7V30.5h-4.1v-5.5h4.1v-6.6h6.6v6.6
	h6.8v5.5h-6.8V43c0,1.3,0.4,2.3,0.9,2.8c0.6,0.8,1.5,0.9,2.6,0.9c1.3,0,2.3-0.4,3.2-1.1l1.9,4.9C30.8,51.3,29.9,51.6,29,52z"/>
<path class="st0" d="M30.3,22.1v-5.8h29.2v5.8H48.4V52h-6.8V22.1H30.3z"/>
<path class="st0" d="M70,25.5c1.5-0.8,3.4-1.1,5.5-1.1v6.4c-0.4,0-0.9,0-1.5,0c-2.3,0-4.1,0.8-5.5,2.1c-1.3,1.3-1.9,3.4-1.9,6V52H60
	V24.7h6.4v4.1C67.4,27.3,68.5,26.2,70,25.5z"/>
<rect x="79.6" y="24.7" class="st0" width="6.6" height="27.3"/>
<path class="st0" d="M114.4,26c1.9,1.1,3.6,2.8,4.7,4.9s1.7,4.5,1.7,7.3s-0.6,5.3-1.7,7.3s-2.6,3.8-4.7,4.9
	c-1.9,1.1-4.1,1.7-6.6,1.7c-3.6,0-6.4-1.3-8.3-4v13.6H93V24.7h6.4v3.8c0.9-1.3,2.3-2.4,3.6-3.2c1.5-0.8,3.2-1.1,5.1-1.1
	C110.3,24.3,112.6,24.9,114.4,26z M112,44.5c1.3-1.5,2.1-3.6,2.1-6c0-2.4-0.8-4.5-2.1-6c-1.3-1.5-3.2-2.3-5.3-2.3
	c-2.1,0-4,0.8-5.3,2.3c-1.3,1.5-2.1,3.6-2.1,6c0,2.4,0.8,4.5,2.1,6c1.3,1.5,3.2,2.3,5.3,2.3C109,46.7,110.7,46,112,44.5z"/>
</svg>
